<svg width="22" height="23" viewBox="0 0 22 23" fill="none" xmlns="http://www.w3.org/2000/svg">
<path d="M18.0652 4.76422L13.5741 0.273177C13.3981 0.0981691 13.16 -7.36301e-05 12.9117 -3.05034e-05H3.92967C1.76022 0.00203958 0.00207008 1.76019 0 3.92964V18.1512C0.00207008 20.3206 1.76022 22.0788 3.92967 22.0809H11.134C11.2795 22.0817 11.423 22.0484 11.5532 21.9836C11.9409 21.7891 12.1451 21.3545 12.0472 20.9319C12.0182 20.8138 11.9674 20.7021 11.8975 20.6026C9.9339 17.5648 10.8047 13.5104 13.8425 11.5468C14.9033 10.8611 16.1397 10.4968 17.4028 10.4978C17.9195 10.4978 18.3384 10.0789 18.3384 9.56212V5.42661C18.3384 5.17841 18.2402 4.94022 18.0652 4.76422ZM8.04642 17.3391H4.30388C3.78713 17.3391 3.36824 16.9202 3.36824 16.4034C3.36824 15.8867 3.78713 15.4678 4.30388 15.4678H8.04642C8.56316 15.4678 8.98205 15.8867 8.98205 16.4034C8.98205 16.9202 8.56316 17.3391 8.04642 17.3391ZM9.58837 12.601H4.30392C3.78718 12.601 3.36829 12.1822 3.36829 11.6654C3.36829 11.1487 3.78718 10.7298 4.30392 10.7298H9.58837C10.1051 10.7298 10.524 11.1487 10.524 11.6654C10.524 12.1822 10.1051 12.601 9.58837 12.601ZM16.4671 5.98799H12.3503V1.87124H12.5225L16.4671 5.81587V5.98799Z" fill="#4323FF"/>
<path d="M21.6242 15.5688C20.8532 14.6669 19.2738 13.1549 17.3202 13.1549C15.3666 13.1549 13.7835 14.6519 13.0163 15.5688C12.5154 16.1522 12.5154 17.0139 13.0163 17.5973C13.7648 18.4992 15.3666 20.0112 17.3202 20.0112C19.2738 20.0112 20.8532 18.5142 21.6242 17.5973C22.1251 17.0139 22.1251 16.1522 21.6242 15.5688ZM17.3202 17.893C16.5968 17.893 16.0103 17.3065 16.0103 16.5831C16.0103 15.8596 16.5968 15.2732 17.3202 15.2732C18.0437 15.2732 18.6301 15.8596 18.6301 16.5831C18.6301 17.3065 18.0437 17.893 17.3202 17.893Z" fill="#4323FF"/>
</svg>
